# xmcd CD database file
#
# Track frame offsets:
#	150
#	18932
#	35675
#	57569
#	70764
#	92888
#	116029
#	137913
#	158012
#	171749
#	188369
#	213558
#	225899
#	246014
#
# Disc length: 3581 seconds
#
# Revision: 0
# Processed by: cddbd v1.5.2PL0 Copyright (c) Steve Scherf et al.
# Submitted via: CDex 1.51
#
DISCID=c00dfb0e
DTITLE=Georgia Shine - Georgia Shine
DYEAR=2016
DGENRE=Country
TTITLE0=Georgia Shine - Redneck
TTITLE1=Georgia Shine - Ink
TTITLE2=Georgia Shine - Shame
TTITLE3=Georgia Shine - Born to do
TTITLE4=Georgia Shine - I'm gone 
TTITLE5=Georgia Shine - Junkie Dumb
TTITLE6=Georgia Shine - Georgia Shine
TTITLE7=Georgia Shine - Love is Alive
TTITLE8=Georgia Shine - Hot Mess
TTITLE9=Georgia Shine - Crazy Daisy
TTITLE10=Georgia Shine - Johnny Rebb
TTITLE11=Georgia Shine - Undercover
TTITLE12=Georgia Shine - 64
TTITLE13=Georgia Shine - Do you know what I mean
EXTD=YEAR: 2016
EXTT0=
EXTT1=
EXTT2=
EXTT3=
EXTT4=
EXTT5=
EXTT6=
EXTT7=
EXTT8=
EXTT9=
EXTT10=
EXTT11=
EXTT12=
EXTT13=
PLAYORDER=
